<svg width="192" height="64" viewBox="0 0 192 64" fill="none" xmlns="http://www.w3.org/2000/svg">
<g id="logo">
<g id="Comercial/shopping-basket">
<g id="Icon">
<path fill-rule="evenodd" clip-rule="evenodd" d="M9.25333 11.1562H11.92L12.0533 11.1825C15.7497 11.2531 18.9795 13.6588 20.0533 17.1412L20.5867 18.9525H48.4C50.8561 18.9635 53.1882 20.0157 54.8 21.84C56.4072 23.6759 57.1184 26.1118 56.7467 28.5075L55.1467 39.375C54.6138 43.5406 51.0382 46.6792 46.7733 46.725H31.0933C27.3475 46.7113 24.0486 44.2945 22.96 40.7662L16.2133 18.375C15.6967 16.454 13.9387 15.1104 11.92 15.0938H9.25333C8.14876 15.0938 7.25333 14.2123 7.25333 13.125C7.25333 12.0377 8.14876 11.1562 9.25333 11.1562ZM26.8 39.5063C27.3661 41.3753 29.1121 42.6563 31.0933 42.6562H46.7733C48.9805 42.6327 50.8496 41.0477 51.2 38.9025L52.8 28.0088C53.0179 26.7407 52.6626 25.4422 51.8273 24.4534C50.9919 23.4646 49.7596 22.884 48.4533 22.8638H21.7867L26.8 39.5063Z" fill="#A966FF"/>
<path d="M30.48 49.875C29.0072 49.875 27.8133 51.0503 27.8133 52.5C27.8133 53.9497 29.0072 55.125 30.48 55.125C31.9528 55.125 33.1467 53.9497 33.1467 52.5C33.1467 51.0503 31.9528 49.875 30.48 49.875Z" fill="#A966FF"/>
<path d="M46.48 49.875C45.0072 49.875 43.8133 51.0503 43.8133 52.5C43.8133 53.9497 45.0072 55.125 46.48 55.125C47.9528 55.125 49.1467 53.9497 49.1467 52.5C49.1467 51.0503 47.9528 49.875 46.48 49.875Z" fill="#A966FF"/>
</g>
</g>
<path id="Shopsy" d="M85.2031 28.2568H78.7119V26.2646C78.7119 25.335 78.6289 24.7428 78.4629 24.4883C78.2969 24.2337 78.0202 24.1064 77.6328 24.1064C77.2122 24.1064 76.8913 24.278 76.6699 24.6211C76.4596 24.9642 76.3545 25.4844 76.3545 26.1816C76.3545 27.0781 76.4762 27.7533 76.7197 28.207C76.9521 28.6608 77.6107 29.2087 78.6953 29.8506C81.8053 31.6989 83.7643 33.2152 84.5723 34.3994C85.3802 35.5837 85.7842 37.4928 85.7842 40.127C85.7842 42.0417 85.5573 43.4528 85.1035 44.3604C84.6608 45.2679 83.7975 46.0316 82.5137 46.6514C81.2298 47.2601 79.7357 47.5645 78.0312 47.5645C76.1608 47.5645 74.5615 47.2103 73.2334 46.502C71.9163 45.7936 71.0531 44.8916 70.6436 43.7959C70.234 42.7002 70.0293 41.1452 70.0293 39.1309V37.3711H76.5205V40.6416C76.5205 41.6488 76.609 42.2962 76.7861 42.584C76.9743 42.8717 77.3008 43.0156 77.7656 43.0156C78.2305 43.0156 78.5736 42.833 78.7949 42.4678C79.0273 42.1025 79.1436 41.5602 79.1436 40.8408C79.1436 39.2581 78.9277 38.2233 78.4961 37.7363C78.0534 37.2493 76.9632 36.4359 75.2256 35.2959C73.488 34.1449 72.3369 33.3092 71.7725 32.7891C71.208 32.2689 70.7376 31.5495 70.3613 30.6309C69.9961 29.7122 69.8135 28.5391 69.8135 27.1113C69.8135 25.0527 70.0736 23.5475 70.5938 22.5957C71.125 21.6439 71.9772 20.9023 73.1504 20.3711C74.3236 19.8288 75.7402 19.5576 77.4004 19.5576C79.2155 19.5576 80.7594 19.8509 82.0322 20.4375C83.3161 21.0241 84.1628 21.7656 84.5723 22.6621C84.9928 23.5475 85.2031 25.0583 85.2031 27.1943V28.2568ZM94.5 20.1221V26.165C95.0755 25.6338 95.6953 25.2354 96.3594 24.9697C97.0345 24.7041 97.7539 24.5713 98.5176 24.5713C99.6908 24.5713 100.687 24.8701 101.506 25.4678C102.336 26.0654 102.84 26.7572 103.017 27.543C103.205 28.3177 103.299 29.7399 103.299 31.8096V47H96.5918V31.4941C96.5918 30.2103 96.5254 29.3857 96.3926 29.0205C96.2708 28.6553 95.9886 28.4727 95.5459 28.4727C95.1364 28.4727 94.8597 28.6608 94.7158 29.0371C94.5719 29.4134 94.5 30.1605 94.5 31.2783V47H87.793V20.1221H94.5ZM120.797 32.7061V38.1016C120.797 40.0827 120.697 41.5381 120.498 42.4678C120.299 43.3864 119.873 44.2497 119.22 45.0576C118.567 45.8545 117.726 46.4466 116.696 46.834C115.678 47.2103 114.505 47.3984 113.177 47.3984C111.694 47.3984 110.438 47.238 109.408 46.917C108.379 46.585 107.576 46.0924 107.001 45.4395C106.437 44.7754 106.033 43.9785 105.789 43.0488C105.546 42.1081 105.424 40.7025 105.424 38.832V33.1875C105.424 31.14 105.645 29.5407 106.088 28.3896C106.531 27.2386 107.327 26.3145 108.479 25.6172C109.63 24.9199 111.102 24.5713 112.895 24.5713C114.4 24.5713 115.689 24.7982 116.763 25.252C117.847 25.6947 118.683 26.2757 119.27 26.9951C119.856 27.7145 120.255 28.4561 120.465 29.2197C120.686 29.9834 120.797 31.1455 120.797 32.7061ZM114.09 31.0459C114.09 29.917 114.029 29.2087 113.907 28.9209C113.785 28.6221 113.525 28.4727 113.127 28.4727C112.729 28.4727 112.463 28.6221 112.33 28.9209C112.197 29.2087 112.131 29.917 112.131 31.0459V40.9902C112.131 42.0306 112.197 42.7113 112.33 43.0322C112.463 43.3421 112.723 43.4971 113.11 43.4971C113.509 43.4971 113.769 43.3532 113.891 43.0654C114.023 42.7777 114.09 42.1579 114.09 41.2061V31.0459ZM129.845 24.9697L129.729 26.9121C130.326 26.1263 130.985 25.5397 131.704 25.1523C132.424 24.765 133.209 24.5713 134.062 24.5713C135.102 24.5713 135.998 24.8535 136.751 25.418C137.515 25.9714 137.991 26.6133 138.179 27.3438C138.367 28.0742 138.461 29.3138 138.461 31.0625V40.3428C138.461 42.346 138.339 43.7738 138.096 44.626C137.863 45.4671 137.376 46.1423 136.635 46.6514C135.904 47.1494 135.019 47.3984 133.979 47.3984C133.148 47.3984 132.379 47.2048 131.671 46.8174C130.963 46.43 130.315 45.8545 129.729 45.0908V50.1377H123.021V24.9697H129.845ZM131.754 31.3779C131.754 30.0166 131.704 29.1921 131.604 28.9043C131.505 28.6165 131.228 28.4727 130.774 28.4727C130.332 28.4727 130.044 28.6387 129.911 28.9707C129.789 29.3027 129.729 30.1051 129.729 31.3779V40.5088C129.729 41.8369 129.795 42.667 129.928 42.999C130.061 43.3311 130.348 43.4971 130.791 43.4971C131.223 43.4971 131.488 43.3477 131.588 43.0488C131.699 42.7389 131.754 41.9974 131.754 40.8242V31.3779ZM154.382 32.0088H148.438V30.8135C148.438 29.7952 148.378 29.1533 148.256 28.8877C148.145 28.611 147.857 28.4727 147.393 28.4727C147.016 28.4727 146.734 28.5999 146.546 28.8545C146.358 29.098 146.264 29.4688 146.264 29.9668C146.264 30.6419 146.308 31.14 146.396 31.4609C146.496 31.7708 146.778 32.1139 147.243 32.4902C147.719 32.8665 148.688 33.4144 150.148 34.1338C152.096 35.0856 153.375 35.9821 153.983 36.8232C154.592 37.6644 154.896 38.8874 154.896 40.4922C154.896 42.2852 154.664 43.641 154.199 44.5596C153.734 45.4671 152.954 46.1699 151.858 46.668C150.774 47.1549 149.462 47.3984 147.924 47.3984C146.219 47.3984 144.758 47.1328 143.541 46.6016C142.335 46.0703 141.505 45.3509 141.051 44.4434C140.597 43.5358 140.37 42.1634 140.37 40.3262V39.2637H146.313V40.6582C146.313 41.8424 146.385 42.6117 146.529 42.9658C146.684 43.32 146.983 43.4971 147.426 43.4971C147.902 43.4971 148.234 43.3809 148.422 43.1484C148.61 42.9049 148.704 42.4014 148.704 41.6377C148.704 40.5863 148.582 39.9277 148.339 39.6621C148.084 39.3965 146.784 38.6107 144.438 37.3047C142.467 36.1979 141.267 35.1963 140.835 34.2998C140.403 33.3923 140.188 32.3187 140.188 31.0791C140.188 29.3193 140.42 28.0244 140.885 27.1943C141.35 26.3532 142.135 25.7057 143.242 25.252C144.36 24.7982 145.655 24.5713 147.127 24.5713C148.588 24.5713 149.827 24.7594 150.846 25.1357C151.875 25.501 152.661 25.988 153.203 26.5967C153.757 27.2054 154.089 27.7699 154.199 28.29C154.321 28.8102 154.382 29.6237 154.382 30.7305V32.0088ZM170.734 24.9697L168.809 40.9072C168.51 43.4307 168.255 45.1517 168.045 46.0703C167.846 46.9889 167.508 47.7471 167.032 48.3447C166.556 48.9424 165.892 49.3796 165.04 49.6562C164.199 49.944 162.849 50.0879 160.989 50.0879H156.922V46.5684C157.962 46.5684 158.632 46.5186 158.931 46.4189C159.229 46.3083 159.379 46.0703 159.379 45.7051C159.379 45.528 159.241 44.7588 158.964 43.3975L155.295 24.9697H161.388L163.579 39.8281L164.642 24.9697H170.734Z" fill="#252527"/>
</g>
</svg>
